<svg width="512" height="512" viewBox="0 0 512 512" fill="none" xmlns="http://www.w3.org/2000/svg">
<path d="M482.585 147.869V363.982C482.585 378.007 475.039 391.066 462.913 398.125L275.665 506.241C269.676 509.715 262.883 511.5 255.946 511.5C249.108 511.5 242.297 509.715 236.307 506.241L173.786 469.251C164.46 464.044 169.011 462.192 172.094 461.123C184.548 456.801 187.067 455.805 200.362 448.26C201.749 447.467 203.578 447.777 205.009 448.603L253.04 477.122C254.781 478.103 257.24 478.103 258.841 477.122L446.104 369.036C447.848 368.04 448.966 366.053 448.966 363.983V147.869C448.966 145.752 447.848 143.775 446.06 142.706L258.874 34.716C257.148 33.706 254.844 33.706 253.106 34.716L65.962 142.736C64.144 143.776 62.997 145.815 62.997 147.869V363.982C62.997 366.051 64.143 367.991 65.951 368.972L117.25 398.626C145.079 412.529 162.125 396.141 162.125 379.67V166.309C162.125 163.292 164.548 160.913 167.564 160.913H191.311C194.28 160.913 196.74 163.291 196.74 166.309V379.671C196.74 416.817 176.504 438.125 141.288 438.125C130.472 438.125 121.941 438.125 98.15 426.412L49.052 398.125C36.919 391.13 29.414 378.008 29.414 363.982V147.869C29.414 133.826 36.919 120.719 49.052 113.734L236.308 5.52599C248.158 -1.17501 263.916 -1.17501 275.665 5.52599L462.913 113.734C475.039 120.748 482.585 133.826 482.585 147.869ZM321.171 343.367C265.291 343.367 252.996 329.319 248.877 301.531C248.4 298.565 245.859 296.356 242.814 296.356H215.508C212.126 296.356 209.412 299.059 209.412 302.46C209.412 338.02 228.766 380.431 321.171 380.431C388.077 380.431 426.44 354.092 426.44 308.088C426.44 262.465 395.613 250.328 330.731 241.738C265.152 233.06 258.488 228.591 258.488 213.23C258.488 200.569 264.131 183.649 312.704 183.649C356.078 183.649 372.069 192.998 378.644 222.225C379.223 224.98 381.727 226.99 384.567 226.99H411.976C413.676 226.99 415.291 226.26 416.446 225.047C417.604 223.767 418.219 222.1 418.057 220.352C413.816 169.975 380.344 146.508 312.703 146.508C252.494 146.508 216.585 171.922 216.585 214.51C216.585 260.727 252.314 273.51 310.085 279.212C379.223 285.994 384.589 296.095 384.589 309.7C384.589 333.299 365.655 343.367 321.171 343.367Z" fill="white" stroke="white"/>
</svg>
